<svg width="110" height="24" viewBox="0 0 110 24" fill="none" xmlns="http://www.w3.org/2000/svg">
<path d="M7.139 7.69V15.5H6.38V11.848H1.749V15.5H0.979V7.69H1.749V11.166H6.38V7.69H7.139ZM14.6441 8.372H11.8611V15.5H11.0911V8.372H8.30809V7.69H14.6441V8.372ZM22.733 15.5V9.142L19.906 14.081H19.422L16.584 9.142V15.5H15.814V7.69H16.606L19.653 13.036L22.722 7.69H23.503V15.5H22.733ZM25.4604 15.5V7.69H26.2304V14.818H30.7404V15.5H25.4604ZM36.4312 7.69H37.0802L40.3252 15.5H39.5112L38.4992 13.058H34.9902L33.9892 15.5H33.1642L36.4312 7.69ZM38.3232 12.453L36.7502 8.592L35.1552 12.453H38.3232ZM43.6157 15.61C43.1977 15.61 42.8127 15.533 42.4607 15.379C42.116 15.2177 41.8117 14.9977 41.5477 14.719C41.291 14.4403 41.0894 14.1213 40.9427 13.762C40.8034 13.4027 40.7337 13.0213 40.7337 12.618C40.7337 12.0753 40.8547 11.5803 41.0967 11.133C41.3387 10.6857 41.676 10.33 42.1087 10.066C42.5414 9.802 43.04 9.67 43.6047 9.67C44.14 9.67 44.613 9.79467 45.0237 10.044C45.4344 10.286 45.7387 10.616 45.9367 11.034L45.2107 11.265C45.0494 10.9717 44.822 10.7443 44.5287 10.583C44.2427 10.4143 43.9237 10.33 43.5717 10.33C43.1904 10.33 42.842 10.429 42.5267 10.627C42.2114 10.825 41.9584 11.0963 41.7677 11.441C41.5844 11.7857 41.4927 12.178 41.4927 12.618C41.4927 13.0507 41.588 13.443 41.7787 13.795C41.9694 14.147 42.2224 14.4293 42.5377 14.642C42.853 14.8473 43.2014 14.95 43.5827 14.95C43.832 14.95 44.0704 14.906 44.2977 14.818C44.5324 14.73 44.734 14.6127 44.9027 14.466C45.0787 14.312 45.196 14.147 45.2547 13.971L45.9917 14.191C45.889 14.4623 45.7167 14.708 45.4747 14.928C45.24 15.1407 44.9614 15.3093 44.6387 15.434C44.3234 15.5513 43.9824 15.61 43.6157 15.61ZM46.7048 13.85C46.7048 13.4907 46.8075 13.1827 47.0128 12.926C47.2181 12.662 47.5005 12.4603 47.8598 12.321C48.2265 12.1743 48.6481 12.101 49.1248 12.101C49.4035 12.101 49.6931 12.123 49.9938 12.167C50.2945 12.211 50.5621 12.277 50.7968 12.365V11.881C50.7968 11.397 50.6538 11.012 50.3678 10.726C50.0818 10.44 49.6858 10.297 49.1798 10.297C48.8718 10.297 48.5675 10.3557 48.2668 10.473C47.9735 10.583 47.6655 10.748 47.3428 10.968L47.0568 10.44C47.4308 10.1833 47.7975 9.99267 48.1568 9.868C48.5161 9.736 48.8828 9.67 49.2568 9.67C49.9608 9.67 50.5181 9.87167 50.9288 10.275C51.3395 10.6783 51.5448 11.2357 51.5448 11.947V14.598C51.5448 14.7007 51.5668 14.7777 51.6108 14.829C51.6548 14.873 51.7245 14.8987 51.8198 14.906V15.5C51.7391 15.5073 51.6695 15.5147 51.6108 15.522C51.5521 15.5293 51.5081 15.5293 51.4788 15.522C51.2955 15.5147 51.1561 15.456 51.0608 15.346C50.9655 15.236 50.9141 15.1187 50.9068 14.994L50.8958 14.576C50.6391 14.906 50.3055 15.1627 49.8948 15.346C49.4841 15.522 49.0661 15.61 48.6408 15.61C48.2741 15.61 47.9405 15.533 47.6398 15.379C47.3465 15.2177 47.1155 15.005 46.9468 14.741C46.7855 14.4697 46.7048 14.1727 46.7048 13.85ZM50.5438 14.29C50.6245 14.1873 50.6868 14.0883 50.7308 13.993C50.7748 13.8977 50.7968 13.8133 50.7968 13.74V12.904C50.5475 12.8087 50.2871 12.7353 50.0158 12.684C49.7518 12.6327 49.4841 12.607 49.2128 12.607C48.6775 12.607 48.2448 12.7133 47.9148 12.926C47.5848 13.1387 47.4198 13.4283 47.4198 13.795C47.4198 14.0077 47.4748 14.2093 47.5848 14.4C47.6948 14.5833 47.8561 14.7373 48.0688 14.862C48.2815 14.9793 48.5308 15.038 48.8168 15.038C49.1761 15.038 49.5098 14.9683 49.8178 14.829C50.1331 14.6897 50.3751 14.51 50.5438 14.29ZM52.7759 12.651C52.7759 12.1083 52.8859 11.6133 53.1059 11.166C53.3333 10.7113 53.6449 10.3483 54.0409 10.077C54.4369 9.80567 54.8879 9.67 55.3939 9.67C55.8706 9.67 56.2959 9.79833 56.6699 10.055C57.0513 10.3043 57.3483 10.6087 57.5609 10.968V7.47H58.3089V14.598C58.3089 14.7007 58.3309 14.7777 58.3749 14.829C58.4189 14.873 58.4849 14.8987 58.5729 14.906V15.5C58.4263 15.522 58.3126 15.5293 58.2319 15.522C58.0779 15.5147 57.9423 15.4523 57.8249 15.335C57.7076 15.2177 57.6489 15.0893 57.6489 14.95V14.389C57.4216 14.763 57.1136 15.06 56.7249 15.28C56.3363 15.5 55.9329 15.61 55.5149 15.61C55.1189 15.61 54.7523 15.5293 54.4149 15.368C54.0849 15.2067 53.7953 14.9867 53.5459 14.708C53.3039 14.4293 53.1133 14.114 52.9739 13.762C52.8419 13.4027 52.7759 13.0323 52.7759 12.651ZM57.5609 13.531V11.76C57.4656 11.496 57.3116 11.2577 57.0989 11.045C56.8863 10.825 56.6443 10.6527 56.3729 10.528C56.1089 10.396 55.8449 10.33 55.5809 10.33C55.2729 10.33 54.9943 10.396 54.7449 10.528C54.4956 10.6527 54.2793 10.825 54.0959 11.045C53.9199 11.265 53.7843 11.5143 53.6889 11.793C53.5936 12.0717 53.5459 12.3577 53.5459 12.651C53.5459 12.959 53.5973 13.2523 53.6999 13.531C53.8099 13.8097 53.9639 14.059 54.1619 14.279C54.3599 14.4917 54.5873 14.6567 54.8439 14.774C55.1006 14.8913 55.3793 14.95 55.6799 14.95C55.8706 14.95 56.0686 14.9133 56.2739 14.84C56.4793 14.7667 56.6736 14.6677 56.8569 14.543C57.0476 14.411 57.2053 14.257 57.3299 14.081C57.4546 13.905 57.5316 13.7217 57.5609 13.531ZM62.4787 15.61C62.068 15.61 61.6867 15.533 61.3347 15.379C60.9827 15.2177 60.6784 15.0013 60.4217 14.73C60.165 14.4513 59.9634 14.1323 59.8167 13.773C59.6774 13.4137 59.6077 13.0287 59.6077 12.618C59.6077 12.0827 59.7287 11.5913 59.9707 11.144C60.22 10.6967 60.561 10.341 60.9937 10.077C61.4264 9.80567 61.9177 9.67 62.4677 9.67C63.0324 9.67 63.5237 9.80567 63.9417 10.077C64.367 10.3483 64.7007 10.7077 64.9427 11.155C65.1847 11.595 65.3057 12.079 65.3057 12.607C65.3057 12.6657 65.3057 12.7243 65.3057 12.783C65.3057 12.8343 65.302 12.8747 65.2947 12.904H60.3887C60.4254 13.3147 60.539 13.6813 60.7297 14.004C60.9277 14.3193 61.1807 14.5723 61.4887 14.763C61.804 14.9463 62.145 15.038 62.5117 15.038C62.8857 15.038 63.2377 14.9427 63.5677 14.752C63.905 14.5613 64.1397 14.312 64.2717 14.004L64.9207 14.18C64.8034 14.4513 64.6237 14.697 64.3817 14.917C64.1397 15.137 63.8537 15.3093 63.5237 15.434C63.201 15.5513 62.8527 15.61 62.4787 15.61ZM60.3667 12.365H64.6017C64.5724 11.947 64.4587 11.5803 64.2607 11.265C64.07 10.9497 63.817 10.704 63.5017 10.528C63.1937 10.3447 62.8527 10.253 62.4787 10.253C62.1047 10.253 61.7637 10.3447 61.4557 10.528C61.1477 10.704 60.8947 10.9533 60.6967 11.276C60.506 11.5913 60.396 11.9543 60.3667 12.365ZM74.9848 15.5H74.2368V12.299C74.2368 11.6317 74.1304 11.1403 73.9178 10.825C73.7051 10.5097 73.3898 10.352 72.9718 10.352C72.5391 10.352 72.1504 10.506 71.8058 10.814C71.4684 11.122 71.2301 11.518 71.0908 12.002V15.5H70.3428V12.299C70.3428 11.6243 70.2401 11.133 70.0348 10.825C69.8294 10.5097 69.5141 10.352 69.0888 10.352C68.6634 10.352 68.2784 10.5023 67.9338 10.803C67.5891 11.1037 67.3471 11.4997 67.2078 11.991V15.5H66.4598V9.769H67.1418V11.067C67.3838 10.6197 67.6918 10.275 68.0658 10.033C68.4471 9.791 68.8688 9.67 69.3308 9.67C69.8074 9.67 70.1924 9.80567 70.4858 10.077C70.7791 10.3483 70.9588 10.704 71.0248 11.144C71.2888 10.66 71.6041 10.2933 71.9708 10.044C72.3448 9.79467 72.7664 9.67 73.2358 9.67C73.5584 9.67 73.8298 9.72867 74.0498 9.846C74.2771 9.96333 74.4568 10.132 74.5888 10.352C74.7281 10.5647 74.8271 10.825 74.8858 11.133C74.9518 11.4337 74.9848 11.771 74.9848 12.145V15.5ZM76.78 17.26C76.8827 17.2673 76.9817 17.271 77.077 17.271C77.1723 17.2783 77.242 17.2747 77.286 17.26C77.374 17.2453 77.4583 17.194 77.539 17.106C77.6197 17.018 77.715 16.8493 77.825 16.6C77.935 16.3507 78.089 15.984 78.287 15.5L75.79 9.769H76.582L78.683 14.73L80.619 9.769H81.367L78.397 17.161C78.3457 17.3003 78.2687 17.4287 78.166 17.546C78.0633 17.6707 77.935 17.766 77.781 17.832C77.6343 17.9053 77.451 17.9457 77.231 17.953C77.165 17.9603 77.0953 17.9603 77.022 17.953C76.956 17.953 76.8753 17.9457 76.78 17.931V17.26Z" fill="black"/>
<path d="M100.112 0H100.037L90 0.985337V18.3695L100.037 24L110 18.3695V0.985337L100.112 0ZM108.587 8.51613L100.037 3.73021V3.65982H99.9628L99.8885 3.58944V3.65982L91.4126 8.51613V2.18182L99.9628 1.33724L108.587 2.18182V8.51613ZM99.9628 4.78592L108.513 9.50147L105.167 11.3314L99.8885 8.37537V9.3607L104.275 11.824L103.606 12.176L99.8885 10.0645V11.0499L102.714 12.6686L102.119 13.0205L99.8885 11.7537V12.739L101.301 13.5132L99.9628 14.2874L91.487 9.57185L99.9628 4.78592ZM91.4126 10.6276L99.8885 15.4135V16.1173L94.0149 12.8094V13.7947L99.9628 17.173V17.9472L94.0149 14.6393V15.6246L99.9628 19.0029L105.985 15.5543V11.8944L108.513 10.4868V17.5249L99.9628 22.3812L91.4126 17.5953V10.6276Z" fill="black"/>
</svg>
